<?xml version="1.0" standalone="no"?>
<!DOCTYPE svg PUBLIC "-//W3C//DTD SVG 20010904//EN"
 "http://www.w3.org/TR/2001/REC-SVG-20010904/DTD/svg10.dtd">
<svg version="1.0" xmlns="http://www.w3.org/2000/svg"
 width="366.000000pt" height="313.000000pt" viewBox="0 0 366.000000 313.000000"
 preserveAspectRatio="xMidYMid meet">

<g transform="translate(0.000000,313.000000) scale(0.100000,-0.100000)"
fill="#FFF" stroke="none">
<path d="M1580 3045 c-325 -61 -608 -216 -827 -450 -518 -553 -535 -1397 -41
-1975 206 -241 508 -417 838 -487 68 -14 128 -18 295 -17 201 1 215 2 326 31
447 118 784 386 983 779 107 213 150 403 150 664 0 256 -41 434 -149 652 -78
156 -144 248 -280 384 -210 211 -420 328 -725 405 -111 28 -452 36 -570 14z
m391 -15 c584 -58 1069 -451 1247 -1011 79 -249 87 -527 20 -794 -129 -521
-570 -943 -1108 -1060 -104 -22 -373 -31 -495 -15 -524 66 -995 448 -1173 951
-62 175 -77 273 -77 489 1 210 14 301 69 464 34 101 122 274 184 361 227 320
582 544 950 600 177 27 238 29 383 15z"/>
<path d="M2057 2342 c-9 -10 -36 -64 -61 -120 -37 -86 -61 -130 -117 -215 -4
-5 -15 -4 -26 4 -17 10 -25 9 -52 -10 -17 -12 -31 -27 -31 -32 0 -24 -136
-149 -163 -149 -17 0 0 77 34 150 20 43 29 74 23 80 -12 12 -23 4 -58 -43 -25
-34 -31 -37 -58 -32 -43 10 -71 -9 -119 -79 -51 -75 -99 -126 -116 -126 -23 0
-42 45 -54 125 -24 172 -68 167 -214 -22 -26 -35 -52 -63 -58 -63 -13 0 -2 53
43 211 45 154 49 193 21 208 -36 20 -133 -70 -216 -199 -43 -66 -128 -231
-173 -337 -12 -29 -26 -53 -31 -53 -16 0 29 180 104 415 77 242 82 265 65 265
-15 0 -26 -27 -96 -246 -99 -313 -132 -479 -104 -524 15 -25 33 1 112 170 122
258 187 364 273 438 65 58 65 56 7 -143 -22 -77 -35 -143 -36 -185 -1 -63 0
-65 23 -65 19 0 43 23 105 99 79 97 109 126 120 115 3 -3 13 -43 21 -90 9 -46
20 -94 24 -105 8 -19 6 -22 -22 -27 -18 -3 -102 -17 -187 -32 -207 -34 -210
-34 -210 -51 0 -16 22 -18 65 -5 17 4 65 11 108 15 l77 8 0 -38 c0 -89 -88
-383 -142 -474 -33 -55 -90 -110 -114 -110 -31 0 -50 25 -34 45 7 8 9 22 6 31
-6 15 -8 15 -26 -1 -27 -24 -25 -61 5 -90 38 -39 71 -33 126 25 75 77 131 201
174 385 13 55 27 131 31 168 8 77 -1 71 138 92 82 12 104 19 127 41 17 16 29
22 33 15 15 -23 45 -9 105 52 l62 62 -7 -51 c-4 -35 -2 -54 5 -59 8 -5 6 -16
-8 -38 -37 -60 -90 -174 -117 -248 -14 -41 -30 -78 -35 -84 -5 -5 -9 -17 -9
-26 0 -20 -70 -46 -135 -51 -43 -3 -45 -8 -30 -70 5 -19 1 -32 -15 -48 -38
-38 -58 -12 -45 58 4 23 20 49 41 69 20 18 32 37 29 43 -27 44 -107 -65 -109
-148 -1 -50 28 -84 67 -77 34 7 67 54 67 98 0 29 4 37 19 37 10 0 38 7 61 15
l42 15 -6 -28 c-14 -58 -19 -219 -7 -226 19 -12 36 9 95 123 31 59 69 122 85
141 l28 34 7 -59 c4 -32 12 -65 18 -72 16 -20 50 -16 91 13 21 14 40 24 43 22
2 -3 -3 -35 -13 -72 -12 -49 -13 -70 -5 -78 16 -16 37 4 74 74 31 59 102 148
118 148 5 0 12 -21 16 -47 9 -67 20 -83 53 -83 20 0 44 14 80 46 28 25 55 43
61 39 5 -3 10 -28 10 -54 0 -40 -5 -52 -31 -77 -47 -44 -73 -101 -60 -130 15
-34 54 -32 79 4 11 15 27 52 36 83 15 51 21 59 90 106 l73 51 -1 -45 c-1 -35
4 -49 22 -63 47 -38 112 9 112 81 0 31 4 39 19 39 10 0 38 7 61 15 40 14 42
14 37 -3 -25 -78 -45 -165 -41 -177 11 -27 33 -16 55 28 29 57 92 148 118 172
19 16 24 17 31 5 6 -8 10 -29 10 -45 0 -40 25 -75 55 -75 26 0 155 104 155
126 0 29 -20 21 -78 -31 -79 -72 -102 -71 -102 5 0 44 -17 80 -38 80 -19 0
-98 -76 -119 -115 -7 -11 -14 -17 -17 -14 -3 3 10 44 29 92 36 88 42 117 26
117 -14 0 -30 -24 -44 -65 -12 -33 -21 -41 -63 -56 -27 -10 -68 -18 -91 -18
-51 -1 -58 -11 -42 -55 11 -29 10 -38 -5 -61 -10 -15 -25 -25 -34 -23 -40 8
-20 114 28 150 17 12 30 28 30 35 0 18 -35 16 -50 -2 -17 -21 -196 -145 -208
-145 -6 0 -13 38 -17 85 -8 98 5 131 55 142 32 6 40 27 15 37 -41 15 -101 -41
-111 -105 -5 -29 -19 -50 -60 -89 -61 -58 -87 -62 -92 -15 -14 132 -53 138
-137 23 -25 -33 -45 -56 -45 -50 0 6 16 52 35 102 39 103 41 110 21 110 -7 0
-25 -27 -39 -59 -20 -47 -39 -70 -84 -105 -80 -63 -93 -62 -93 13 0 33 -3 66
-6 75 -19 50 -94 -23 -171 -168 -58 -109 -65 -95 -34 60 16 75 32 122 71 194
28 52 74 143 103 202 36 73 61 112 79 123 27 15 28 15 28 -3 0 -31 27 -34 59
-7 22 19 114 134 148 184 12 18 8 -17 -8 -84 -26 -103 -36 -339 -17 -374 16
-29 34 -28 30 2 -2 12 -4 74 -5 137 -1 170 53 390 128 525 50 88 67 141 51
154 -10 8 -17 6 -29 -7z m-248 -430 c-47 -62 -69 -83 -69 -68 0 16 65 118 83
131 41 29 35 2 -14 -63z m-268 11 c-5 -10 -31 -38 -56 -63 -41 -39 -46 -42
-40 -20 13 45 61 100 87 100 15 0 17 -4 9 -17z m589 -799 c0 -12 -34 -64 -42
-64 -13 0 -9 20 10 45 16 23 32 32 32 19z"/>
<path d="M2325 2038 c-27 -25 -38 -44 -42 -75 -5 -36 -18 -55 -82 -123 -45
-48 -87 -82 -103 -86 -26 -6 -28 -4 -28 23 0 15 9 62 20 102 20 72 16 108 -8
78 -14 -16 -43 -126 -44 -165 -2 -69 34 -97 88 -69 16 8 58 45 93 82 70 72 81
72 81 0 0 -35 -6 -47 -39 -79 -51 -50 -68 -88 -53 -121 13 -29 43 -32 68 -8
22 23 54 92 54 120 0 16 21 38 75 78 41 30 77 55 79 55 3 0 2 -16 -1 -35 -10
-62 34 -101 92 -79 22 9 45 57 45 94 0 16 5 30 10 30 17 0 19 0 61 16 23 8 44
13 46 11 1 -2 -5 -28 -15 -58 -26 -74 -33 -121 -23 -138 14 -21 35 -1 72 69
30 56 107 158 121 159 3 1 9 -22 13 -49 15 -109 61 -115 159 -20 48 47 58 62
49 71 -10 10 -25 1 -72 -44 -83 -80 -92 -77 -106 26 -11 81 -56 75 -126 -18
-23 -30 -44 -54 -46 -52 -2 2 12 45 32 95 39 101 41 112 22 112 -8 0 -24 -23
-38 -52 -21 -46 -29 -53 -74 -69 -27 -10 -69 -18 -92 -18 -46 -1 -53 -13 -32
-53 16 -30 -6 -78 -37 -78 -21 0 -24 5 -24 36 0 42 36 111 62 120 10 3 18 12
18 20 0 16 -35 19 -45 5 -6 -12 -188 -139 -207 -146 -11 -4 -17 14 -25 72 -14
93 -5 119 47 145 40 20 46 41 13 46 -14 2 -35 -9 -58 -30z m-50 -377 c-17 -34
-35 -48 -35 -29 0 18 28 58 41 58 5 0 3 -13 -6 -29z"/>
<path d="M2100 2025 c0 -20 4 -26 18 -23 9 2 17 12 17 23 0 11 -8 21 -17 23
-14 3 -18 -3 -18 -23z"/>
<path d="M950 676 c0 -37 4 -66 10 -66 6 0 10 26 10 59 0 33 -4 63 -10 66 -6
4 -10 -18 -10 -59z"/>
<path d="M1142 691 c-26 -62 -30 -97 -8 -68 17 22 52 22 65 0 5 -10 12 -15 16
-12 3 4 -7 35 -22 70 l-29 63 -22 -53z m38 -22 c0 -5 -7 -9 -15 -9 -9 0 -12 6
-9 15 6 15 24 11 24 -6z"/>
<path d="M1402 729 c-12 -5 -27 -20 -34 -34 -10 -22 -8 -30 9 -53 25 -34 47
-38 79 -17 32 21 23 33 -12 15 -48 -26 -85 27 -45 64 19 17 22 18 45 2 31 -20
37 -20 30 -2 -8 21 -46 34 -72 25z"/>
<path d="M1581 680 c-13 -33 -21 -63 -18 -67 4 -3 9 2 13 11 8 21 50 21 63 -1
5 -10 12 -15 15 -12 6 6 -30 106 -43 121 -4 4 -17 -19 -30 -52z m39 -11 c0 -5
-7 -9 -15 -9 -9 0 -12 6 -9 15 6 15 24 11 24 -6z"/>
<path d="M1880 732 c-40 -12 -54 -76 -22 -105 25 -23 55 -21 77 3 10 11 13 20
7 20 -6 0 -14 -4 -17 -10 -9 -15 -42 -12 -59 6 -21 20 -20 30 5 55 19 19 22
20 46 4 28 -18 42 -13 24 9 -14 17 -40 24 -61 18z"/>
<path d="M2006 719 c-15 -12 -26 -30 -26 -45 0 -29 33 -64 60 -64 27 0 60 35
60 64 0 22 -40 66 -60 66 -4 0 -19 -9 -34 -21z m58 -12 c38 -27 -2 -95 -41
-71 -25 16 -29 55 -7 71 10 7 21 13 24 13 3 0 14 -6 24 -13z"/>
<path d="M2151 680 c-13 -33 -21 -63 -18 -67 4 -3 9 2 13 11 8 21 50 21 63 -1
5 -10 12 -15 16 -11 6 6 -30 103 -44 120 -4 4 -17 -19 -30 -52z m34 -18 c-22
-5 -27 1 -19 23 7 17 8 17 21 -1 12 -17 12 -19 -2 -22z"/>
<path d="M2293 729 c-34 -12 -47 -45 -33 -80 16 -37 51 -47 86 -24 32 21 23
33 -12 15 -48 -26 -85 27 -45 64 19 18 22 18 46 2 20 -13 25 -14 25 -3 0 20
-41 36 -67 26z"/>
<path d="M2715 715 c-31 -30 -32 -55 -2 -83 28 -27 58 -28 80 -4 25 28 21 42
-14 42 -17 0 -28 -4 -24 -10 3 -5 12 -7 20 -3 8 3 15 1 15 -5 0 -11 -23 -22
-45 -22 -8 0 -19 9 -25 20 -25 46 23 88 61 54 10 -9 22 -14 27 -10 9 9 -35 46
-55 46 -7 0 -25 -11 -38 -25z"/>
<path d="M851 668 c1 -35 4 -51 6 -35 3 21 10 27 28 27 13 0 27 5 30 10 4 6
-7 10 -25 10 -25 0 -31 4 -28 18 2 10 13 17 25 17 12 0 25 4 29 8 4 4 -9 7
-29 7 l-37 0 1 -62z"/>
<path d="M1006 677 c2 -71 6 -80 13 -32 l6 40 25 -37 c14 -21 28 -38 33 -38 4
0 7 27 7 60 0 65 -17 83 -22 23 l-3 -37 -25 37 c-14 20 -27 37 -30 37 -3 0 -4
-24 -4 -53z"/>
<path d="M1252 670 c1 -40 3 -51 5 -27 2 20 8 37 14 37 5 0 9 -3 9 -7 0 -5 11
-21 25 -38 l24 -30 1 63 c0 35 -4 62 -10 62 -5 0 -10 -15 -10 -32 l-1 -33 -29
35 -29 35 1 -65z"/>
<path d="M1510 669 c0 -37 4 -58 10 -54 6 3 10 31 10 61 0 30 -4 54 -10 54 -6
0 -10 -27 -10 -61z"/>
<path d="M1692 673 c-2 -61 -1 -63 22 -63 14 0 28 5 31 10 3 6 -5 10 -19 10
-23 0 -25 4 -29 53 l-3 52 -2 -62z"/>
<path d="M2400 675 c0 -30 5 -55 10 -55 6 0 10 11 10 25 0 20 4 24 23 21 16
-2 21 -9 19 -25 -2 -11 2 -21 7 -21 7 0 11 23 11 55 0 30 -4 55 -10 55 -5 0
-10 -11 -10 -25 0 -18 -5 -25 -20 -25 -15 0 -20 7 -20 25 0 14 -4 25 -10 25
-5 0 -10 -25 -10 -55z"/>
<path d="M2520 670 c0 -33 4 -60 10 -60 6 0 10 27 10 60 0 33 -4 60 -10 60 -6
0 -10 -27 -10 -60z"/>
<path d="M2582 670 c1 -40 3 -51 5 -27 2 20 8 37 14 37 5 0 9 -3 9 -7 0 -5 11
-21 25 -38 l24 -30 1 63 c0 35 -4 62 -10 62 -5 0 -10 -17 -11 -37 0 -36 -1
-37 -14 -18 -46 65 -44 65 -43 -5z"/>
</g>
</svg>
