<?xml version="1.0" standalone="no"?>
<!DOCTYPE svg PUBLIC "-//W3C//DTD SVG 20010904//EN"
 "http://www.w3.org/TR/2001/REC-SVG-20010904/DTD/svg10.dtd">
<svg version="1.0" xmlns="http://www.w3.org/2000/svg"
 width="512.000000pt" height="512.000000pt" viewBox="0 0 512.000000 512.000000"
 preserveAspectRatio="xMidYMid meet">

<g transform="translate(0.000000,512.000000) scale(0.100000,-0.100000)"
fill="#fef5e7" stroke="none">
<path d="M343 5100 c-68 -41 -63 180 -63 -2542 0 -2425 0 -2463 20 -2495 41
-68 -122 -63 1995 -63 2092 0 1947 -4 1994 56 21 27 21 30 21 871 0 926 3 886
-60 918 -67 34 -148 6 -176 -61 -12 -27 -14 -167 -14 -784 l0 -750 -1765 0
-1765 0 0 2310 0 2310 1765 0 1765 0 0 -420 c0 -460 1 -468 58 -509 35 -25 90
-27 132 -6 61 31 60 24 60 588 0 506 0 515 -21 541 -47 60 98 56 -1996 56
-1885 0 -1919 0 -1950 -20z"/>
<path d="M1785 4429 c-11 -6 -131 -122 -267 -257 l-248 -246 -113 112 c-109
107 -116 112 -156 112 -87 0 -138 -55 -128 -138 5 -42 14 -54 168 -209 176
-176 201 -192 269 -173 27 7 107 82 342 317 263 264 307 313 313 345 9 49 -10
103 -45 128 -31 22 -102 27 -135 9z"/>
<path d="M4130 3723 c-17 -3 -317 -296 -903 -881 -483 -482 -886 -890 -897
-907 -13 -21 -35 -135 -76 -383 -56 -342 -57 -354 -41 -387 19 -41 70 -75 110
-75 15 0 179 25 363 55 185 30 339 55 342 55 13 0 1784 1776 1798 1802 18 34
18 72 0 106 -20 37 -598 612 -616 612 -8 0 -24 2 -35 4 -11 2 -31 2 -45 -1z
m222 -480 c98 -98 178 -182 178 -188 0 -6 -68 -78 -150 -160 l-150 -150 -185
185 -185 185 152 152 c84 84 155 153 158 153 3 0 85 -80 182 -177z m-484 -496
l182 -182 -563 -563 -563 -563 -218 -36 c-119 -20 -219 -34 -221 -31 -3 3 11
101 30 219 l36 214 562 563 c309 309 564 562 567 562 3 0 87 -82 188 -183z"/>
<path d="M1780 2934 c-14 -9 -134 -125 -267 -258 l-243 -241 -108 108 c-97 97
-113 109 -152 114 -85 12 -149 -53 -137 -137 5 -40 18 -56 169 -207 105 -105
174 -167 195 -174 70 -23 79 -16 401 305 167 165 310 313 318 328 29 55 7 136
-45 162 -39 21 -100 20 -131 0z"/>
<path d="M1540 1205 c-140 -140 -260 -255 -265 -255 -6 0 -53 43 -105 96 -52
52 -107 102 -122 110 -88 46 -188 -28 -175 -129 5 -36 22 -57 169 -204 105
-105 174 -167 195 -174 70 -23 79 -16 401 305 167 165 310 313 318 328 18 35
18 72 -1 112 -20 42 -63 66 -116 66 -43 0 -44 -1 -299 -255z"/>
</g>
</svg>
