<?xml version="1.0" standalone="no"?>
<!DOCTYPE svg PUBLIC "-//W3C//DTD SVG 20010904//EN"
 "http://www.w3.org/TR/2001/REC-SVG-20010904/DTD/svg10.dtd">
<svg version="1.0" xmlns="http://www.w3.org/2000/svg"
 width="1024.000000pt" height="1024.000000pt" viewBox="0 0 1024.000000 1024.000000"
 preserveAspectRatio="xMidYMid meet">

<g transform="translate(0.000000,1024.000000) scale(0.100000,-0.100000)"
fill="#22221f" stroke="none">
<path d="M7185 9274 c-695 -55 -1276 -304 -1724 -739 -344 -335 -554 -723
-632 -1170 -27 -154 -32 -431 -10 -585 17 -128 71 -335 116 -451 81 -204 213
-431 344 -587 58 -68 61 -75 61 -124 0 -129 -47 -303 -126 -467 -83 -175 -151
-270 -288 -405 -114 -112 -121 -121 -121 -158 0 -83 65 -104 305 -102 363 4
931 142 1430 349 l127 52 109 -23 c206 -44 345 -57 584 -57 155 0 265 5 353
16 612 81 1137 325 1540 717 355 344 562 732 643 1205 24 137 24 452 0 590
-79 469 -288 862 -643 1205 -404 392 -935 640 -1534 715 -123 15 -438 27 -534
19z m525 -529 c613 -94 1131 -404 1436 -860 119 -179 199 -371 240 -580 25
-125 25 -405 0 -530 -140 -703 -756 -1263 -1561 -1419 -370 -71 -674 -61
-1078 35 l-128 31 -97 -64 c-253 -168 -528 -297 -772 -362 -122 -33 -127 -26
-61 90 64 111 103 205 137 330 25 89 28 116 28 270 l1 171 -70 79 c-260 292
-381 513 -447 817 -31 147 -31 427 0 573 74 342 247 637 520 888 324 297 788
497 1267 546 126 12 460 4 585 -15z"/>
<path d="M6327 7350 c-59 -15 -108 -45 -154 -92 -120 -123 -118 -320 3 -442
61 -61 134 -90 224 -90 93 0 155 26 222 91 125 122 125 323 2 447 -73 73 -201
110 -297 86z"/>
<path d="M7287 7350 c-92 -24 -179 -97 -219 -185 -16 -38 -22 -69 -22 -125 0
-93 25 -155 91 -222 122 -125 323 -125 447 -2 89 89 117 237 67 350 -27 63
-101 136 -163 164 -54 24 -148 33 -201 20z"/>
<path d="M8247 7350 c-92 -24 -179 -97 -219 -185 -31 -70 -31 -180 0 -250 30
-65 102 -138 166 -166 71 -32 182 -32 251 -1 65 30 138 102 166 166 32 71 32
181 0 252 -27 63 -101 136 -163 164 -54 24 -148 33 -201 20z"/>
<path d="M1905 8314 c-105 -16 -262 -87 -366 -166 -292 -220 -537 -479 -675
-714 -406 -690 -251 -1680 441 -2824 519 -858 1462 -1902 2415 -2672 1189
-961 2321 -1413 3175 -1268 367 63 642 215 955 529 289 290 430 506 461 701
33 217 -69 408 -321 600 -174 132 -1345 894 -1455 946 -103 49 -185 68 -300
68 -210 1 -330 -67 -517 -289 -284 -339 -430 -431 -673 -429 -124 1 -227 27
-363 89 -317 147 -783 531 -1217 1005 -366 399 -560 687 -641 956 -23 75 -27
107 -28 209 0 105 4 129 26 187 57 151 159 271 403 476 222 187 290 307 289
517 0 115 -19 196 -68 300 -50 106 -789 1243 -934 1438 -126 168 -243 268
-367 313 -66 24 -179 37 -240 28z m87 -771 c53 -55 288 -413 288 -439 0 -16
-18 -35 -62 -67 -271 -194 -492 -482 -597 -780 -56 -159 -74 -272 -75 -464 -1
-94 -4 -169 -7 -167 -11 6 -89 218 -128 351 -95 315 -121 605 -76 838 40 206
142 376 345 576 113 111 218 189 254 189 12 0 38 -17 58 -37z m5151 -5284 c66
-34 352 -228 397 -269 22 -20 40 -46 40 -57 0 -59 -222 -307 -375 -420 -280
-205 -580 -250 -1030 -157 -118 25 -427 122 -515 163 l-45 21 147 0 c376 0
687 115 981 360 100 84 203 194 283 303 40 54 61 76 72 77 1 0 22 -10 45 -21z"/>
</g>
</svg>
